<svg xmlns="http://www.w3.org/2000/svg" viewBox="0 0 16 16" fill="none" shape-rendering="crispEdges"><desc>"Pixel Art" by "Florian Körner", licensed under "CC0 1.0". / Remix of the original. - Created with dicebear.com</desc><metadata xmlns:dc="http://purl.org/dc/elements/1.1/" xmlns:cc="http://creativecommons.org/ns#" xmlns:rdf="http://www.w3.org/1999/02/22-rdf-syntax-ns#"><rdf:RDF><cc:Work><dc:title>Pixel Art</dc:title><dc:creator><cc:Agent rdf:about="https://dicebear.com"><dc:title>Florian Körner</dc:title></cc:Agent></dc:creator><dc:source>https://www.figma.com/community/file/1198754108850888330</dc:source><cc:license rdf:resource="https://creativecommons.org/licenses/zero/1.0/" /></cc:Work></rdf:RDF></metadata><mask id="viewboxMask"><rect width="16" height="16" rx="0" ry="0" x="0" y="0" fill="#fff" /></mask><g mask="url(#viewboxMask)"><path d="M4 2h8v1h1v3h1v2h-1v3h-1v1H9v1h4v1h1v2H2v-2h1v-1h4v-1H4v-1H3V8H2V6h1V3h1V2Z" fill="#ffdbac"/><path d="M4 2h8v1h1v3h1v2h-1v3h-1v1H4v-1H3V8H2V6h1V3h1V2Z" fill="#fff" fill-opacity=".1"/><path d="M2 7h1v1H2zM13 7h1v1h-1z" fill="#ffd700"/><path d="M4 13h2v1h1v1h2v-1h1v-1h2v1h1v2H3v-2h1v-1Z" fill="#44c585"/><g fill-rule="evenodd" clip-rule="evenodd"><path d="M5 6h1v2H4V7h1V6Zm5 0h1v2H9V7h1V6Z" fill="#fff"/><path d="M6 6v1H5v1h2V6H6Zm5 0v1h-1v1h2V6h-1Z" fill="#588387"/><path d="M6 6v1h1V6H6ZM5 7v1h1V7H5Zm6-1v1h1V6h-1Zm-1 1v1h1V7h-1Z" fill="#fff" fill-opacity=".5"/></g><path d="M6 9h4v1H6V9Z" fill="#c98276"/><path d="M5 4V3h7v1h1v2h1v2h-1v3h-1v1H9v1h4v1h1v3h1V3h-1V2h-1V1H3v1H2v1H1v14h1v-3h1v-1h4v-1H4v-1H3V8H2V6h1V5h1V4h1Z" fill="#83623b"/></g></svg>